{"title":"The Smurfs 2 New Source TS x264 AC3 UNiQUE","uid":8941465,"size":1501411256,"categoryP":"video","categoryS":"movies","magnet":"?xt=urn:btih:c55485b9b8299feb6d9faaa4ec8b318b36966508&amp;dn=The+Smurfs+2+New+Source+TS+x264+AC3+UNiQUE&amp;tr=udp%3A%2F%2Ftracker.openbittorrent.com%3A80&amp;tr=udp%3A%2F%2Fopen.demonii.com%3A1337&amp;tr=udp%3A%2F%2Ftracker.coppersurfer.tk%3A6969&amp;tr=udp%3A%2F%2Fexodus.desync.com%3A6969","seeders":6,"leechers":0,"uploader":"xxxlavalxxx","files":-1,"time":1379669374,"description":" &lt;a href=&quot;http://www.imdb.com/title/tt2017020/&quot; rel=&quot;nofollow&quot; target=&quot;_NEW&quot;&gt;http://www.imdb.com/title/tt2017020/&lt;/a&gt;\n\n\n\nThe Smurfs team up with their human friends to rescue Smurfette, who has been kidnapped by Gargamel since she knows a secret spell that can turn the evil sorcerer's newest creation - creatures called the Naughties - into real Smurfs. \n\n\n\nDirector:\n Raja Gosnell \n\nWriters:\n J. David Stem (screenplay), David N. Weiss (screenplay)\n\nStars:\n Hank Azaria, Neil Patrick Harris, Jayma Mays \n\nGenres:\n  Animation |  Comedy |  Family |  Fantasy \n\nCountry:\n USA \n\nLanguage:\n English | French \n\n\n\n\n Source SMY THX\n\n Note source had Chinese subs but they were not hard-coded for once.. so i removed almost all of them.. the only Chinese subs that come up is a couple times in movie where something is spelled in English.. other than that sub free clean copy.. Enjoy\n\n General:\n\n Format                                   : Matroska\n Format version                           : Version 2\n File size                                : 1.40 GiB\n Duration                                 : 1h 40mn\n Overall bit rate mode                    : Variable\n Overall bit rate                         : 1 988 Kbps\n Encoded date                             : UTC 2013-09-20 06:09:01\n Writing application                      : mkvmerge v6.4.1 ('Omega Point') built on Sep 16 2013 22:05:10\n Writing library                          : libebml v1.3.0 + libmatroska v1.4.1\n\n Video:\n\n ID                                       : 1\n Format                                   : AVC\n Format/Info                              : Advanced Video Codec\n Format profile                           : &lt;a class=&quot;__cf_email__&quot; href=&quot;/cdn-cgi/l/email-protection&quot; data-cfemail=&quot;85cdece2edc5c9b1abb4&quot;&gt;[email&amp;#160;protected]&lt;/a&gt;&lt;script cf-hash='f9e31' type=&quot;text/javascript&quot;&gt;\n/* &lt;![CDATA[ */!function(){try{var t=&quot;currentScript&quot;in document?document.currentScript:function(){for(var t=document.getElementsByTagName(&quot;script&quot;),e=t.length;e--;)if(t[e].getAttribute(&quot;cf-hash&quot;))return t[e]}();if(t&amp;&amp;t.previousSibling){var e,r,n,i,c=t.previousSibling,a=c.getAttribute(&quot;data-cfemail&quot;);if(a){for(e=&quot;&quot;,r=parseInt(a.substr(0,2),16),n=2;a.length-n;n+=2)i=parseInt(a.substr(n,2),16)^r,e+=String.fromCharCode(i);e=document.createTextNode(e),c.parentNode.replaceChild(e,c)}}}catch(u){}}();/* ]]&gt; */&lt;/script&gt;\n Format settings, CABAC                   : Yes\n Format settings, ReFrames                : 3 frames\n Codec ID                                 : V_MPEG4/ISO/AVC\n Duration                                 : 1h 40mn\n Bit rate mode                            : Variable\n Bit rate                                 : 1 794 Kbps\n Maximum bit rate                         : 40.0 Mbps\n Width                                    : 704 pixels\n Height                                   : 352 pixels\n Display aspect ratio                     : 2.000\n Frame rate                               : 23.976 fps\n Color space                              : YUV\n Chroma subsampling                       : 4:2:0\n Bit depth                                : 8 bits\n Scan type                                : Progressive\n Bits/(Pixel*Frame)                       : 0.302\n Stream size                              : 1.24 GiB (88%)\n Writing library                          : x264 core 138 r2358 9e941d1\n Default                                  : Yes\n Forced                                   : No\n\n Audio:\n\n ID                                       : 2\n Format                                   : AC-3\n Format/Info                              : Audio Coding 3\n Mode extension                           : CM (complete main)\n Format settings, Endianness              : Big\n Codec ID                                 : A_AC3\n Duration                                 : 1h 40mn\n Bit rate mode                            : Constant\n Bit rate                                 : 192 Kbps\n Channel(s)                               : 2 channels\n Channel positions                        : Front: L R\n Sampling rate                            : 48.0 KHz\n Bit depth                                : 16 bits\n Compression mode                         : Lossy\n Delay relative to video                  : 667ms\n Stream size                              : 138 MiB (10%)\n Default                                  : Yes\n Forced                                   : No\n\n\n &lt;a href=&quot;\nhttp://bayimg.com/FAPbeaaEM&quot; rel=&quot;nofollow&quot; target=&quot;_NEW&quot;&gt;\nhttp://bayimg.com/FAPbeaaEM&lt;/a&gt; &lt;a href=&quot;\nhttp://bayimg.com/fApBGAAEM&quot; rel=&quot;nofollow&quot; target=&quot;_NEW&quot;&gt;\nhttp://bayimg.com/fApBGAAEM&lt;/a&gt;","torrent":{"xt":"urn:btih:c55485b9b8299feb6d9faaa4ec8b318b36966508","amp;dn":"The+Smurfs+2+New+Source+TS+x264+AC3+UNiQUE","amp;tr":["udp%3A%2F%2Ftracker.openbittorrent.com%3A80","udp%3A%2F%2Fopen.demonii.com%3A1337","udp%3A%2F%2Ftracker.coppersurfer.tk%3A6969","udp%3A%2F%2Fexodus.desync.com%3A6969"],"infoHash":"c55485b9b8299feb6d9faaa4ec8b318b36966508","infoHashBuffer":{"type":"Buffer","data":[197,84,133,185,184,41,159,235,109,159,170,164,236,139,49,139,54,150,101,8]},"announce":[],"urlList":[]}}